<?xml version="1.0" encoding="utf-8"?>
<!-- Generator: Adobe Illustrator 24.0.2, SVG Export Plug-In . SVG Version: 6.00 Build 0)  -->
<svg version="1.1" id="Layer_1" xmlns="http://www.w3.org/2000/svg" xmlns:xlink="http://www.w3.org/1999/xlink" x="0px" y="0px"
	 viewBox="0 0 12 16" style="enable-background:new 0 0 12 16;" xml:space="preserve">
<style type="text/css">
	.st0{fill:#00F0FF;}
</style>
<path class="st0" d="M2,14.5c-0.3,0-0.5-0.2-0.5-0.5V2c0-0.3,0.2-0.5,0.5-0.5h5V4c0,0.6,0.4,1,1,1h2.5v9c0,0.3-0.2,0.5-0.5,0.5H2z
	 M2,0C0.9,0,0,0.9,0,2v12c0,1.1,0.9,2,2,2h8c1.1,0,2-0.9,2-2V4.8c0-0.5-0.2-1-0.6-1.4L8.6,0.6C8.2,0.2,7.7,0,7.2,0H2z M3.8,8
	C3.3,8,3,8.3,3,8.7s0.3,0.8,0.8,0.8h4.5C8.7,9.5,9,9.2,9,8.7S8.7,8,8.3,8H3.8z M3.8,11C3.3,11,3,11.3,3,11.7s0.3,0.8,0.8,0.8h4.5
	c0.4,0,0.8-0.3,0.8-0.8S8.7,11,8.3,11H3.8z"/>
</svg>
