<?xml version="1.0" encoding="utf-8"?>
<!-- Generator: Adobe Illustrator 24.0.2, SVG Export Plug-In . SVG Version: 6.00 Build 0)  -->
<svg version="1.1" id="Layer_1" xmlns="http://www.w3.org/2000/svg" xmlns:xlink="http://www.w3.org/1999/xlink" x="0px" y="0px"
	 viewBox="0 0 14 16" style="enable-background:new 0 0 14 16;" xml:space="preserve">
<style type="text/css">
	.st0{fill:#8C8C8C;}
</style>
<path class="st0" d="M1.9,16.2h-3.8V3.9h3.8V16.2z M0,2.2c-1.2,0-2.2-1-2.2-2.2c0-1.2,1-2.2,2.2-2.2c1.2,0,2.2,1,2.2,2.2
	C2.2,1.2,1.2,2.2,0,2.2z M16.2,16.2h-3.8v-6c0-1.4,0-3.3-2-3.3c-2,0-2.3,1.6-2.3,3.2v6.1H4.3V3.9H8v1.7H8c0.5-1,1.8-2,3.6-2
	c3.9,0,4.6,2.5,4.6,5.9L16.2,16.2L16.2,16.2z"/>
</svg>
